<svg width="1200" height="620" viewBox="0 0 1200 620" fill="none" xmlns="http://www.w3.org/2000/svg" role="img" aria-labelledby="title desc">
  <title id="title">QuickFolder macOS menu bar app preview</title>
  <desc id="desc">A stylized preview of QuickFolder showing a macOS menu bar folder icon and a popover with pinned and recent folders.</desc>
  <defs>
    <linearGradient id="bg" x1="0" y1="0" x2="1200" y2="620" gradientUnits="userSpaceOnUse">
      <stop stop-color="#F7F8FA"/>
      <stop offset="0.48" stop-color="#EEF4F8"/>
      <stop offset="1" stop-color="#F9FAF7"/>
    </linearGradient>
    <linearGradient id="accent" x1="372" y1="117" x2="795" y2="558" gradientUnits="userSpaceOnUse">
      <stop stop-color="#1677FF"/>
      <stop offset="1" stop-color="#25A18E"/>
    </linearGradient>
    <filter id="shadow" x="245" y="64" width="710" height="532" filterUnits="userSpaceOnUse" color-interpolation-filters="sRGB">
      <feFlood flood-opacity="0" result="BackgroundImageFix"/>
      <feColorMatrix in="SourceAlpha" type="matrix" values="0 0 0 0 0 0 0 0 0 0 0 0 0 0 0 0 0 0 127 0" result="hardAlpha"/>
      <feOffset dy="24"/>
      <feGaussianBlur stdDeviation="34"/>
      <feComposite in2="hardAlpha" operator="out"/>
      <feColorMatrix type="matrix" values="0 0 0 0 0.12 0 0 0 0 0.16 0 0 0 0 0.2 0 0 0 0.18 0"/>
      <feBlend mode="normal" in2="BackgroundImageFix" result="effect1_dropShadow_1_1"/>
      <feBlend mode="normal" in="SourceGraphic" in2="effect1_dropShadow_1_1" result="shape"/>
    </filter>
  </defs>

  <rect width="1200" height="620" rx="34" fill="url(#bg)"/>

  <rect x="120" y="58" width="960" height="44" rx="14" fill="#FFFFFF" fill-opacity="0.78" stroke="#DCE3EA"/>
  <circle cx="150" cy="80" r="6" fill="#FF5F57"/>
  <circle cx="170" cy="80" r="6" fill="#FFBD2E"/>
  <circle cx="190" cy="80" r="6" fill="#28C840"/>
  <text x="230" y="86" fill="#2C3540" font-family="Inter, -apple-system, BlinkMacSystemFont, 'Segoe UI', sans-serif" font-size="16" font-weight="600">QuickFolder</text>
  <rect x="896" y="68" width="34" height="24" rx="8" fill="#EAF2FF"/>
  <path d="M904 77.5C904 75.6 905.6 74 907.5 74H912.7C914 74 915.1 74.7 915.7 75.8L916.5 77H921.5C923.4 77 925 78.6 925 80.5V84.5C925 86.4 923.4 88 921.5 88H907.5C905.6 88 904 86.4 904 84.5V77.5Z" fill="#1677FF"/>
  <text x="944" y="86" fill="#7C8794" font-family="Inter, -apple-system, BlinkMacSystemFont, 'Segoe UI', sans-serif" font-size="14">Menu bar utility</text>

  <g filter="url(#shadow)">
    <rect x="330" y="124" width="540" height="414" rx="28" fill="#FFFFFF" fill-opacity="0.94" stroke="#DFE6ED"/>
    <rect x="354" y="148" width="492" height="72" rx="18" fill="#F8FAFC"/>
    <rect x="374" y="168" width="42" height="34" rx="10" fill="#EAF2FF"/>
    <path d="M384 179C384 176.8 385.8 175 388 175H396.5C398 175 399.4 175.8 400.1 177.1L401.2 179H409C411.2 179 413 180.8 413 183V192C413 194.2 411.2 196 409 196H388C385.8 196 384 194.2 384 192V179Z" fill="#1677FF"/>
    <text x="430" y="177" fill="#1F2937" font-family="Inter, -apple-system, BlinkMacSystemFont, 'Segoe UI', sans-serif" font-size="21" font-weight="700">QuickFolder</text>
    <text x="430" y="200" fill="#7C8794" font-family="Inter, -apple-system, BlinkMacSystemFont, 'Segoe UI', sans-serif" font-size="14">Pinned and recent folders in one fast popover</text>
    <circle cx="807" cy="184" r="17" fill="#EEF2F6"/>
    <path d="M807 176V192M799 184H815" stroke="#52606D" stroke-width="2.2" stroke-linecap="round"/>

    <rect x="354" y="238" width="492" height="46" rx="14" fill="#F3F6F8"/>
    <circle cx="378" cy="261" r="8" stroke="#8A96A3" stroke-width="2"/>
    <path d="M384 267L391 274" stroke="#8A96A3" stroke-width="2" stroke-linecap="round"/>
    <text x="405" y="267" fill="#8A96A3" font-family="Inter, -apple-system, BlinkMacSystemFont, 'Segoe UI', sans-serif" font-size="15">Search folders</text>

    <text x="354" y="320" fill="#687381" font-family="Inter, -apple-system, BlinkMacSystemFont, 'Segoe UI', sans-serif" font-size="12" font-weight="700" letter-spacing="1.5">PINNED</text>
    <rect x="354" y="334" width="492" height="58" rx="16" fill="#FFFFFF" stroke="#E4EAF0"/>
    <rect x="374" y="348" width="32" height="30" rx="9" fill="#EAF2FF"/>
    <path d="M381 358C381 356.3 382.3 355 384 355H391C392.2 355 393.2 355.6 393.8 356.6L394.5 358H401C402.7 358 404 359.3 404 361V369C404 370.7 402.7 372 401 372H384C382.3 372 381 370.7 381 369V358Z" fill="#1677FF"/>
    <text x="420" y="358" fill="#1F2937" font-family="Inter, -apple-system, BlinkMacSystemFont, 'Segoe UI', sans-serif" font-size="15" font-weight="700">Design Projects</text>
    <text x="420" y="378" fill="#8A96A3" font-family="Inter, -apple-system, BlinkMacSystemFont, 'Segoe UI', sans-serif" font-size="12">~/Desktop/work</text>
    <path d="M804 352L814 362L803 373L801 364L792 362L804 352Z" fill="#25A18E"/>

    <text x="354" y="430" fill="#687381" font-family="Inter, -apple-system, BlinkMacSystemFont, 'Segoe UI', sans-serif" font-size="12" font-weight="700" letter-spacing="1.5">RECENT</text>
    <rect x="354" y="444" width="492" height="58" rx="16" fill="#FFFFFF" stroke="#E4EAF0"/>
    <rect x="374" y="458" width="32" height="30" rx="9" fill="#ECF8F5"/>
    <path d="M381 468C381 466.3 382.3 465 384 465H391C392.2 465 393.2 465.6 393.8 466.6L394.5 468H401C402.7 468 404 469.3 404 471V479C404 480.7 402.7 482 401 482H384C382.3 482 381 480.7 381 479V468Z" fill="#25A18E"/>
    <text x="420" y="468" fill="#1F2937" font-family="Inter, -apple-system, BlinkMacSystemFont, 'Segoe UI', sans-serif" font-size="15" font-weight="700">QuickFolder</text>
    <text x="420" y="488" fill="#8A96A3" font-family="Inter, -apple-system, BlinkMacSystemFont, 'Segoe UI', sans-serif" font-size="12">Opened today - ~/Desktop/chatrecent</text>
    <circle cx="808" cy="473" r="12" fill="#F3F6F8"/>
    <path d="M808 466V473L813 477" stroke="#687381" stroke-width="2" stroke-linecap="round" stroke-linejoin="round"/>
  </g>

  <circle cx="913" cy="160" r="46" fill="url(#accent)" fill-opacity="0.12"/>
  <circle cx="285" cy="489" r="38" fill="#25A18E" fill-opacity="0.12"/>
  <text x="120" y="570" fill="#52606D" font-family="Inter, -apple-system, BlinkMacSystemFont, 'Segoe UI', sans-serif" font-size="18" font-weight="600">Native macOS - SwiftUI + AppKit - Open source</text>
</svg>
